<svg t="1753966553883" class="icon" viewBox="0 0 1024 1024" version="1.1" xmlns="http://www.w3.org/2000/svg" p-id="5203" width="200" height="200"><path d="M148.4 495.5c1.9-43.2 11.4-85.1 28.1-124.7 18.3-43.3 44.5-82.1 77.9-115.5 33.4-33.4 72.2-59.6 115.5-77.9 44.8-18.9 92.3-28.5 141.4-28.5 49.1 0 96.6 9.6 141.4 28.5 43.3 18.3 82.1 44.5 115.5 77.9 6.2 6.2 12.1 12.5 17.8 19.1l50.4-17.5c-75.7-96.2-193.2-158-325.1-158C283.1 98.9 98 283.9 98 512.2v0.8l50.4-17.5zM874.2 531.3c-2.2 42.3-11.6 83.4-28 122.3-18.3 43.3-44.5 82.1-77.9 115.5-33.4 33.4-72.2 59.6-115.5 77.9-44.8 18.9-92.3 28.5-141.4 28.5-49.1 0-96.6-9.6-141.4-28.5-43.3-18.3-82.1-44.5-115.5-77.9-6.1-6.1-12-12.4-17.6-18.9l-50.5 17.3c75.7 96.2 193.1 158 325 158 227.7 0 412.4-184.1 413.3-411.6l-50.5 17.4z" fill="#999999" p-id="5204"></path><path d="M818 564l78.2-100 78.1 100zM49.2 464L128 564l79-100z" fill="#999999" p-id="5205"></path></svg>