<svg t="1640851050636" class="icon" viewBox="0 0 1024 1024" version="1.1" xmlns="http://www.w3.org/2000/svg" p-id="2341" width="200" height="200">
  <path d="M832 352H192v416c0 53.024 42.976 96 96 96h448c53.024 0 96-42.976 96-96V352zM288 800c-35.296 0-64-28.704-64-64s28.704-64 64-64 64 28.704 64 64-28.704 64-64 64z m448 0c-35.296 0-64-28.704-64-64s28.704-64 64-64 64 28.704 64 64-28.704 64-64 64z" p-id="2342"></path>
  <path d="M928 256H768l-64-96c-12.64-18.976-33.76-32-57.6-32H377.6c-23.84 0-44.96 13.024-57.6 32l-64 96H96c-17.664 0-32 14.336-32 32s14.336 32 32 32h832c17.664 0 32-14.336 32-32s-14.336-32-32-32z" p-id="2343"></path>
</svg>
